<?xml version="1.0" encoding="UTF-8"?>
<svg id="_レイヤー_2" data-name="レイヤー 2" xmlns="http://www.w3.org/2000/svg" viewBox="0 0 83.35 83.35">
  <defs>
    <style>
      .cls-1 {
        stroke-linecap: round;
        stroke-linejoin: round;
        stroke-width: 2.21px;
      }

      .cls-1, .cls-2 {
        fill: #fff;
        stroke: #00537a;
      }

      .cls-3 {
        fill: #00537a;
        stroke-width: 0px;
      }

      .cls-2 {
        stroke-miterlimit: 10;
        stroke-width: .74px;
      }
    </style>
  </defs>
  <g id="_レイヤー_1-2" data-name="レイヤー 1">
    <g>
      <path class="cls-3" d="M83.35,41.67c0,23.02-18.66,41.67-41.67,41.67S0,64.69,0,41.67,18.66,0,41.67,0s41.67,18.66,41.67,41.67Z"/>
      <g>
        <path class="cls-1" d="M32,56.95c1.31-1.27,2.12-3.04,2.12-5.01s-.82-3.74-2.12-5.01h9.73c3.44,0,6.25-2.81,6.25-6.25s-2.81-6.25-6.25-6.25h-10.94c-23.58,0-21.29,33.34,8.57,33.34,19.52,0,29.17-9.85,29.17-33.43H27.53"/>
        <g>
          <path class="cls-2" d="M57.28,36.73c0,3.27-2.67,5.94-5.94,5.94s-5.94-2.67-5.94-5.94v-13.86c0-3.27,2.67-5.94,5.94-5.94s5.94,2.67,5.94,5.94v13.86Z"/>
          <path class="cls-1" d="M57.28,36.73c0,3.27-2.67,5.94-5.94,5.94s-5.94-2.67-5.94-5.94v-13.86c0-3.27,2.67-5.94,5.94-5.94s5.94,2.67,5.94,5.94v13.86Z"/>
        </g>
        <g>
          <path class="cls-2" d="M68.53,37.04c0,3.09-2.53,5.63-5.63,5.63s-5.62-2.53-5.62-5.63v-13.2c0-3.09,2.53-5.62,5.62-5.62s5.63,2.53,5.63,5.62v13.2Z"/>
          <path class="cls-1" d="M68.53,37.04c0,3.09-2.53,5.63-5.63,5.63s-5.62-2.53-5.62-5.63v-13.2c0-3.09,2.53-5.62,5.62-5.62s5.63,2.53,5.63,5.62v13.2Z"/>
        </g>
        <g>
          <path class="cls-2" d="M32.89,36.42c0,3.44-2.81,6.25-6.25,6.25h0c-3.44,0-6.25-2.81-6.25-6.25v-14.59c0-3.44,2.81-6.25,6.25-6.25h0c3.44,0,6.25,2.81,6.25,6.25v14.59Z"/>
          <path class="cls-1" d="M32.89,36.42c0,3.44-2.81,6.25-6.25,6.25h0c-3.44,0-6.25-2.81-6.25-6.25v-14.59c0-3.44,2.81-6.25,6.25-6.25h0c3.44,0,6.25,2.81,6.25,6.25v14.59Z"/>
        </g>
        <g>
          <path class="cls-2" d="M39.15,15.58h0c3.45,0,6.25,2.8,6.25,6.25v14.58c0,3.45-2.8,6.25-6.25,6.25h0c-3.45,0-6.25-2.8-6.25-6.25v-14.59c0-3.45,2.8-6.25,6.25-6.25Z"/>
          <path class="cls-1" d="M39.15,15.58h0c3.45,0,6.25,2.8,6.25,6.25v14.58c0,3.45-2.8,6.25-6.25,6.25h0c-3.45,0-6.25-2.8-6.25-6.25v-14.59c0-3.45,2.8-6.25,6.25-6.25Z"/>
        </g>
        <path class="cls-1" d="M32,56.95c1.31-1.27,2.12-3.04,2.12-5.01s-.82-3.74-2.12-5.01h9.73c3.44,0,6.25-2.81,6.25-6.25s-2.81-6.25-6.25-6.25h-10.94c-23.58,0-21.29,33.34,8.57,33.34"/>
      </g>
    </g>
  </g>
</svg>