<?xml version="1.0" encoding="UTF-8"?>
<svg id="_レイヤー_2" data-name="レイヤー 2" xmlns="http://www.w3.org/2000/svg" viewBox="0 0 83.35 83.35">
  <defs>
    <style>
      .cls-1 {
        fill: #fff;
        stroke: #bd3525;
        stroke-linecap: round;
        stroke-linejoin: round;
        stroke-width: 2.21px;
      }

      .cls-2 {
        fill: #bd3525;
        stroke-width: 0px;
      }
    </style>
  </defs>
  <g id="_レイヤー_1-2" data-name="レイヤー 1">
    <g>
      <path class="cls-2" d="M83.35,41.68c0,23.02-18.66,41.67-41.67,41.67S0,64.69,0,41.68,18.66,0,41.67,0s41.67,18.66,41.67,41.68Z"/>
      <g>
        <g>
          <path class="cls-1" d="M51.89,9.6c-2.85-.76-5.8.94-6.56,3.79l-6.79,25.36-6.8-25.36c-.76-2.85-3.72-4.55-6.56-3.79-2.85.76-4.55,3.72-3.79,6.56l10.54,39.33c.76,2.85,3.72,4.56,6.56,3.79.02,0,.03,0,.05-.02.02,0,.03.01.05.02,2.85.77,5.8-.94,6.56-3.79l10.54-39.33c.76-2.85-.94-5.8-3.79-6.56Z"/>
          <path class="cls-1" d="M51.89,9.6c-2.85-.76-5.8.94-6.56,3.79l-6.79,25.36-6.8-25.36c-.76-2.85-3.72-4.55-6.56-3.79-2.85.76-4.55,3.72-3.79,6.56l10.54,39.33c.76,2.85,3.72,4.56,6.56,3.79.02,0,.03,0,.05-.02.02,0,.03.01.05.02,2.85.77,5.8-.94,6.56-3.79l10.54-39.33c.76-2.85-.94-5.8-3.79-6.56Z"/>
        </g>
        <path class="cls-1" d="M34.86,64.17c1.18-1.15,1.92-2.75,1.92-4.52s-.74-3.38-1.92-4.52h8.78c3.1,0,5.64-2.54,5.64-5.64s-2.54-5.64-5.64-5.64h-9.87c-21.28,0-19.21,30.09,7.74,30.09,17.62,0,26.33-8.89,26.33-30.17l-37,6.59"/>
        <g>
          <path class="cls-1" d="M57.25,51.95c-.76,2.85-3.72,4.55-6.56,3.79h0c-2.85-.76-4.55-3.72-3.79-6.57l3.24-12.08c.76-2.85,3.72-4.55,6.56-3.79h0c2.85.76,4.55,3.72,3.79,6.56l-3.24,12.08Z"/>
          <path class="cls-1" d="M57.25,51.95c-.76,2.85-3.72,4.55-6.56,3.79h0c-2.85-.76-4.55-3.72-3.79-6.57l3.24-12.08c.76-2.85,3.72-4.55,6.56-3.79h0c2.85.76,4.55,3.72,3.79,6.56l-3.24,12.08Z"/>
        </g>
        <g>
          <path class="cls-1" d="M66.98,54.85c-.72,2.7-3.52,4.31-6.22,3.59-2.7-.72-4.31-3.52-3.59-6.22l3.08-11.5c.72-2.7,3.52-4.31,6.22-3.59,2.7.72,4.31,3.52,3.59,6.22l-3.08,11.5Z"/>
          <path class="cls-1" d="M66.98,54.85c-.72,2.7-3.52,4.31-6.22,3.59-2.7-.72-4.31-3.52-3.59-6.22l3.08-11.5c.72-2.7,3.52-4.31,6.22-3.59,2.7.72,4.31,3.52,3.59,6.22l-3.08,11.5Z"/>
        </g>
        <path class="cls-1" d="M34.86,64.17c1.18-1.15,1.92-2.75,1.92-4.52s-.74-3.38-1.92-4.52h8.78c3.1,0,5.64-2.54,5.64-5.64s-2.54-5.64-5.64-5.64h-9.87c-21.28,0-19.21,30.09,7.74,30.09"/>
      </g>
    </g>
  </g>
</svg>