<?xml version="1.0" encoding="UTF-8"?>
<svg id="_レイヤー_2" data-name="レイヤー 2" xmlns="http://www.w3.org/2000/svg" viewBox="0 0 83.35 83.35">
  <defs>
    <style>
      .cls-1 {
        stroke-width: 2.25px;
      }

      .cls-1, .cls-2 {
        stroke-linecap: round;
        stroke-linejoin: round;
      }

      .cls-1, .cls-2, .cls-3 {
        fill: #fff;
        stroke: #d9a500;
      }

      .cls-2 {
        stroke-width: 2.21px;
      }

      .cls-3 {
        stroke-miterlimit: 10;
        stroke-width: .74px;
      }

      .cls-4 {
        fill: #d9a500;
        stroke-width: 0px;
      }
    </style>
  </defs>
  <g id="_レイヤー_1-2" data-name="レイヤー 1">
    <path class="cls-4" d="M83.35,41.68c0,23.02-18.66,41.67-41.68,41.67S0,64.69,0,41.68,18.66,0,41.67,0s41.68,18.66,41.68,41.68Z"/>
    <g>
      <g>
        <path class="cls-3" d="M70.15,30.4h0c-2.34-1.2-5.24-.26-6.43,2.09l-6.07,11.91,4.86-22.88c.58-2.71-1.17-5.4-3.88-5.97-2.71-.58-5.39,1.17-5.97,3.88l-4.9,23.07V13.93c0-2.77-2.27-5.04-5.04-5.04s-5.03,2.26-5.03,5.03v27.64l-4.91-23.09c-.58-2.71-3.26-4.45-5.97-3.88-2.71.58-4.45,3.26-3.88,5.97l5.96,28.03-7.57-8.7c-2.21-2.54-6.09-2.81-8.63-.6-2.54,2.21-2.81,6.09-.61,8.63l10.31,11.86c.06.08.11.15.18.23,4.63,5.36,4.27,14.45,19.47,14.45,21,0,19.04-15.72,23.14-23.75h0l7.06-13.86c1.19-2.34.26-5.24-2.09-6.43Z"/>
        <path class="cls-1" d="M70.15,30.4h0c-2.34-1.2-5.24-.26-6.43,2.09l-6.07,11.91,4.86-22.88c.58-2.71-1.17-5.4-3.88-5.97-2.71-.58-5.39,1.17-5.97,3.88l-4.9,23.07V13.93c0-2.77-2.27-5.04-5.04-5.04s-5.03,2.26-5.03,5.03v27.64l-4.91-23.09c-.58-2.71-3.26-4.45-5.97-3.88-2.71.58-4.45,3.26-3.88,5.97l5.96,28.03-7.57-8.7c-2.21-2.54-6.09-2.81-8.63-.6-2.54,2.21-2.81,6.09-.61,8.63l10.31,11.86c.06.08.11.15.18.23,4.63,5.36,4.27,14.45,19.47,14.45,21,0,19.04-15.72,23.14-23.75h0l7.06-13.86c1.19-2.34.26-5.24-2.09-6.43Z"/>
      </g>
      <path class="cls-2" d="M44.81,59.98c-.54-3.38-2.39-6.54-5.41-8.66-3.02-2.12-6.62-2.77-9.98-2.12"/>
    </g>
  </g>
</svg>